<?xml version="1.0" encoding="utf-8"?>
<!-- Generator: Adobe Illustrator 18.0.0, SVG Export Plug-In . SVG Version: 6.00 Build 0)  -->
<!DOCTYPE svg PUBLIC "-//W3C//DTD SVG 1.1//EN" "http://www.w3.org/Graphics/SVG/1.1/DTD/svg11.dtd">
<svg version="1.1" id="Layer_1" xmlns="http://www.w3.org/2000/svg" xmlns:xlink="http://www.w3.org/1999/xlink" x="0px" y="0px"
	 viewBox="0 0 1500 1500" enable-background="new 0 0 1500 1500" xml:space="preserve">
<g>
	<g>
		<rect x="20.4" y="22.2" fill="#01A0B0" width="720.9" height="720.9"/>
		<path fill="#FFFFFF" d="M739.4,24.2v716.9H22.4V24.2H739.4 M743.4,20.2h-4H22.4h-4v4v716.9v4h4h716.9h4v-4V24.2V20.2L743.4,20.2z"
			/>
	</g>
	<g>
		<rect x="758.6" y="22.2" fill="#CC333F" width="720.9" height="720.9"/>
		<path fill="#FFFFFF" d="M1477.6,24.2v716.9H760.6V24.2H1477.6 M1481.6,20.2h-4H760.6h-4v4v716.9v4h4h716.9h4v-4V24.2V20.2
			L1481.6,20.2z"/>
	</g>
	<g>
		<rect x="20.4" y="756.9" fill="#EA6841" width="720.9" height="720.9"/>
		<path fill="#FFFFFF" d="M739.4,758.9v716.9H22.4V758.9H739.4 M743.4,754.9h-4H22.4h-4v4v716.9v4h4h716.9h4v-4V758.9V754.9
			L743.4,754.9z"/>
	</g>
	<g>
		<rect x="758.6" y="756.9" fill="#EDC950" width="720.9" height="720.9"/>
		<path fill="#FFFFFF" d="M1477.6,758.9v716.9H760.6V758.9H1477.6 M1481.6,754.9h-4H760.6h-4v4v716.9v4h4h716.9h4v-4V758.9V754.9
			L1481.6,754.9z"/>
	</g>
	<g>
		<g>
			<path fill="#FFFFFF" d="M116.4,226.6c-5.5,0-8-3.7-7.4-8.6l5.5-42.4c0.6-4.9,4.3-8,9.2-8h203.4c5.5,0,8,3.1,7.4,8.6l-5.5,42.4
				c-0.6,4.9-4.3,8-9.2,8h-63.9v362.5c0,6.1-2.5,8.6-8,8.6h-52.2c-5.5,0-8-2.5-8-8.6V226.6H116.4z"/>
		</g>
		<g>
			<path fill="#FFFFFF" d="M557.8,485.9h-1.2v103.2c0,6.1-3.1,8.6-8.6,8.6h-51.6c-5.5,0-8.6-2.5-8.6-8.6V485.9h-1.2
				c-46.1,0-76.2-26.4-76.2-82.3V176.2c0-6.1,3.1-8.6,8.6-8.6h51.6c5.5,0,8.6,2.5,8.6,8.6v227.3c0,16,7.4,23.4,23.3,23.4h41.2
				c16,0,24-7.4,24-23.4V176.2c0-6.1,2.5-8.6,8-8.6h49.8c5.5,0,8,2.5,8,8.6v227.3C633.4,459.5,603.9,485.9,557.8,485.9z"/>
		</g>
	</g>
	<g>
		<g>
			<path fill="#FFFFFF" d="M1009,167.6c46.1,0,76.2,26.4,76.2,82.3v172c0,55.9-30.1,82.3-76.2,82.3h-76.8v84.8
				c0,6.1-3.1,8.6-8.6,8.6H872c-5.5,0-8.6-2.5-8.6-8.6V176.2c0-6.1,3.1-8.6,8.6-8.6H1009z M932.2,226.6v218.7h60.8
				c16,0,23.3-7.4,23.3-23.3v-172c0-16-7.4-23.4-23.3-23.4H932.2z"/>
		</g>
		<g>
			<path fill="#FFFFFF" d="M1170.7,589.1V176.2c0-6.1,3.1-8.6,8.6-8.6h188c5.5,0,8,3.1,7.4,8.6l-5.5,42.4c-0.6,4.9-4.3,8-9.2,8
				h-120.4v122.9h92.8c5.5,0,8,3.7,7.4,8.6l-5.5,42.4c-0.6,4.9-4.3,8-9.2,8h-85.4v130.2h127.8c5.5,0,8,3.7,7.4,8.6l-5.5,42.4
				c-0.6,4.9-4.3,8-9.2,8h-180.6C1173.8,597.7,1170.7,595.3,1170.7,589.1z"/>
		</g>
	</g>
	<g>
		<g>
			<path fill="#FFFFFF" d="M325,980.9v43c0,5.5-3.7,8.6-8.6,9.2l-49.2,4.9c-5.5,0.6-8.6-2.5-8.6-8v-49.2c0-16-7.4-23.3-23.3-23.3
				h-38.7c-16,0-23.3,7.4-23.3,23.3v272.8c0,16,7.4,23.3,23.3,23.3h38.7c16,0,23.3-7.4,23.3-23.3v-48.5c0-4.9,3.1-8,8.6-8.6
				l48.5-5.5c5.5-0.6,9.2,3.1,9.2,8v54.7c0,55.9-30.1,82.3-76.2,82.3h-68.2c-46.1,0-76.2-26.4-76.2-82.3V980.9
				c0-55.9,30.1-82.3,76.2-82.3h68.2C294.9,898.6,325,925,325,980.9z"/>
		</g>
		<g>
			<path fill="#FFFFFF" d="M490.4,898.6h71.3c46.1,0,76.2,26.4,76.2,82.3v342.9c0,6.1-3.1,8.6-8.6,8.6h-51.6c-5.5,0-8.6-2.5-8.6-8.6
				v-103.2h-88.5v103.2c0,6.1-3.1,8.6-8.6,8.6h-49.2c-5.5,0-8.6-2.5-8.6-8.6V980.9C414.2,925,444.3,898.6,490.4,898.6z M480.5,980.9
				v180.6H569V980.9c0-16-7.4-23.3-24-23.3h-41.2C487.9,957.6,480.5,965,480.5,980.9z"/>
		</g>
	</g>
	<g>
		<g>
			<path fill="#FFFFFF" d="M861.3,1060.8v-79.9c0-55.9,29.5-82.3,75.6-82.3h68.2c46.1,0,75.6,26.4,75.6,82.3v36.9
				c0,5.5-3.1,8.6-8.6,9.2l-48.5,4.9c-5.5,0.6-8.6-2.5-8.6-8v-43c0-16-8-23.3-24-23.3h-37.5c-16,0-24,7.4-24,23.3v79.9
				c0,16,8,23.4,24,23.4h57.8c46.1,0,75.6,26.4,75.6,82.3v87.2c0,55.9-29.5,82.3-75.6,82.3h-77.4c-46.1,0-75.6-26.4-75.6-82.3v-44.2
				c0-5.5,3.1-8.6,8.6-9.2l48.5-4.9c5.5-0.6,8.6,2.5,8.6,8v50.4c0,16,8,23.3,24,23.3h46.7c16,0,24-7.4,24-23.3v-87.2
				c0-16-8-23.3-24-23.3h-57.8C890.8,1143.2,861.3,1116.7,861.3,1060.8z"/>
		</g>
		<g>
			<path fill="#FFFFFF" d="M1175.9,1323.8V910.9c0-6.1,3.1-8.6,8.6-8.6h188c5.5,0,8,3.1,7.4,8.6l-5.5,42.4c-0.6,4.9-4.3,8-9.2,8
				h-120.4v122.9h92.8c5.5,0,8,3.7,7.4,8.6l-5.5,42.4c-0.6,4.9-4.3,8-9.2,8h-85.4v130.2h127.8c5.5,0,8,3.7,7.4,8.6l-5.5,42.4
				c-0.6,4.9-4.3,8-9.2,8h-180.6C1179,1332.4,1175.9,1329.9,1175.9,1323.8z"/>
		</g>
	</g>
</g>
</svg>
